@startuml

title __SRC's Class Diagram__\n


    class Emailer {
        + generateWeatherAlert()
    }

  


    class Phone {
        + generateWeatherAlert()
    }

  


    class WeatherTracker {
        ~ currentConditions : String
        + WeatherTracker()
        + setCurrentConditions()
    }

  

  WeatherTracker o-- Emailer : emailer
  WeatherTracker o-- Phone : phone


right footer


PlantUML diagram generated by SketchIt! (https://bitbucket.org/pmesmeur/sketch.it)
For more information about this tool, please contact philippe.mesmeur@gmail.com
endfooter

@enduml
