@startuml

title __PROJECTE5's Class Diagram__\n

  namespace  {
    class Emailer {
    }
  }
  

  namespace  {
    class Phone {
    }
  }
  

  namespace  {
    class WeatherTracker {
    }
  }
  

  WeatherTracker o-- Emailer : emailer
  WeatherTracker o-- Phone : phone


right footer


PlantUML diagram generated by SketchIt! (https://bitbucket.org/pmesmeur/sketch.it)
For more information about this tool, please contact philippe.mesmeur@gmail.com
endfooter

@enduml
